<?xml version="1.0" encoding="UTF-8"?>
<svg width="320" height="200" viewBox="0 0 320 200" xmlns="http://www.w3.org/2000/svg">
  <defs>
    <linearGradient id="frame" x1="0" y1="0" x2="1" y2="1">
      <stop offset="0%" stop-color="#f8fafc"/>
      <stop offset="100%" stop-color="#cbd5f5"/>
    </linearGradient>
    <linearGradient id="core" x1="0" y1="0" x2="1" y2="1">
      <stop offset="0%" stop-color="#38bdf8"/>
      <stop offset="100%" stop-color="#1d4ed8"/>
    </linearGradient>
    <linearGradient id="glow" x1="0" y1="0" x2="0" y2="1">
      <stop offset="0%" stop-color="#e0f2fe" stop-opacity="0.9"/>
      <stop offset="100%" stop-color="#0ea5e9" stop-opacity="0.35"/>
    </linearGradient>
  </defs>
  <g fill="none" stroke="none">
    <g fill="url(#frame)">
      <rect x="116" y="84" width="88" height="44" rx="14"/>
      <rect x="130" y="94" width="60" height="24" rx="12" fill="url(#core)"/>
      <rect x="145" y="100" width="30" height="12" rx="6" fill="#0b3b77"/>
    </g>
    <g fill="url(#glow)">
      <circle cx="52" cy="52" r="20"/>
      <circle cx="268" cy="52" r="20"/>
      <circle cx="52" cy="148" r="20"/>
      <circle cx="268" cy="148" r="20"/>
    </g>
    <g stroke="url(#frame)" stroke-width="10" stroke-linecap="round">
      <line x1="74" y1="52" x2="116" y2="90"/>
      <line x1="246" y1="52" x2="204" y2="90"/>
      <line x1="74" y1="148" x2="116" y2="122"/>
      <line x1="246" y1="148" x2="204" y2="122"/>
    </g>
    <g fill="#e2e8f0">
      <circle cx="160" cy="106" r="4"/>
      <circle cx="174" cy="106" r="4"/>
    </g>
  </g>
</svg>
